<?xml version="1.0" encoding="utf-8"?>
<!-- Generator: Adobe Illustrator 21.0.0, SVG Export Plug-In . SVG Version: 6.00 Build 0)  -->
<svg version="1.1" id="图层_1" xmlns="http://www.w3.org/2000/svg" xmlns:xlink="http://www.w3.org/1999/xlink" x="0px" y="0px"
	 viewBox="0 0 1535.8 1535.9" style="enable-background:new 0 0 1535.8 1535.9;" xml:space="preserve">
<style type="text/css">
	.st0{fill:#FFFFFF;}
</style>
<path class="st0" d="M1535.7,1213.5c0-275.7,0-551.3,0.1-827c0-5.6-1.6-9.7-5.6-13.6c-22.2-21.4-43.4-43.7-65.8-64.9
	c-25.9-24.5-50.2-50.6-76.1-75.1c-26.7-25.3-52.2-51.9-78.6-77.6c-48.7-47.4-96.6-95.7-144.8-143.6c-0.5-0.5-1-0.9-1.4-1.4
	c-7.1-7.1-15.1-10.4-25.8-10.4c-313,0.3-625.9,0.2-938.9,0.2c-9.7,0-19.2,0.4-28.8,1.8C130.5,7.8,96,24.2,66.4,50.4l-50,69
	C6.1,143.4,0,168.2,0,194.4c0,191.1,0,382.3,0,573.5c0,190.5,0,381,0,571.5c0,9.7,0.5,19.3,2.1,28.8c6.2,38.5,22.4,72.3,48.2,101.4
	c19.3,21.6,42.3,38.5,69,50c24,10.3,48.8,16.3,75,16.3c381.6,0,763.3,0,1144.9,0c9.7,0,19.3-0.5,28.8-2.1
	c38.5-6.3,72.3-22.5,101.4-48.3c21.6-19.3,38.5-42.3,50-69c10.3-24,16.3-48.8,16.3-75C1535.6,1298.8,1535.7,1256.2,1535.7,1213.5z
	 M292.7,190.2c59.3,0,118.6,0,177.9,0c25.5,0,42.3,16.8,42.4,42.2c0,69.1,0,138.3,0,207.4c0,69,0,138,0,206.9
	c0,26.1-16.6,42.8-42.8,42.8c-59,0-118,0-176.9,0c-25.8,0-42.6-16.7-42.6-42.5c0-138.3,0-276.6,0-414.9
	C250.7,207.1,267.6,190.2,292.7,190.2z M1223,1320.5c-155.1,0-310.3,0-465.4,0c-155.1,0-310.3,0-465.4,0
	c-20.7,0-37.2-13.1-40.9-32.6c-0.6-2.9-0.6-6-0.6-8.9c0-114.8,0-229.6,0-344.4c0-24.1,17.2-41.3,41.2-41.3c310.4,0,620.9,0,931.3,0
	c24.8,0,41.8,17,41.8,41.8c0,114.5,0,229,0,343.4C1265,1303.6,1248.1,1320.5,1223,1320.5z"/>
</svg>
