<?xml version="1.0" standalone="no"?><!DOCTYPE svg PUBLIC "-//W3C//DTD SVG 1.1//EN" "http://www.w3.org/Graphics/SVG/1.1/DTD/svg11.dtd"><svg t="1718857995877" class="icon" viewBox="0 0 1024 1024" version="1.1" xmlns="http://www.w3.org/2000/svg" p-id="1982" xmlns:xlink="http://www.w3.org/1999/xlink" width="20" height="20"><path d="M512 64a42.666667 42.666667 0 0 1 3.2 85.226667L512 149.333333H192a42.666667 42.666667 0 0 0-42.56 39.466667L149.333333 192v640a42.666667 42.666667 0 0 0 39.466667 42.56L192 874.666667h640a42.666667 42.666667 0 0 0 42.56-39.466667L874.666667 832V512a42.666667 42.666667 0 0 1 85.226666-3.2L960 512v320a128 128 0 0 1-123.2 127.914667L832 960H192a128 128 0 0 1-127.914667-123.2L64 832V192a128 128 0 0 1 123.2-127.914667L192 64h320z m232.149333 126.954667l90.517334 90.517333-245.504 245.504a85.333333 85.333333 0 0 1-25.024 17.344l-68.885334 31.296a34.176 34.176 0 0 1-45.248-45.226667l31.296-68.906666a85.333333 85.333333 0 0 1 17.344-25.024L744.149333 190.954667z m165.930667-105.6l30.186667 30.186666a42.666667 42.666667 0 0 1 0 60.330667l-45.269334 45.248-90.496-90.496L849.749333 85.333333a42.666667 42.666667 0 0 1 60.330667 0z" fill="#ffffff" p-id="1983"></path></svg>