<?xml version="1.0" standalone="no"?><!DOCTYPE svg PUBLIC "-//W3C//DTD SVG 1.1//EN" "http://www.w3.org/Graphics/SVG/1.1/DTD/svg11.dtd"><svg t="1725883031897" class="icon" viewBox="0 0 1024 1024" version="1.1" xmlns="http://www.w3.org/2000/svg" p-id="12373" width="32" height="32" xmlns:xlink="http://www.w3.org/1999/xlink"><path d="M512 0c282.752 0 512 229.248 512 512s-229.248 512-512 512S0 794.752 0 512 229.248 0 512 0z m0 85.333333C276.352 85.333333 85.333333 276.352 85.333333 512s191.018667 426.666667 426.666667 426.666667 426.666667-191.018667 426.666667-426.666667S747.648 85.333333 512 85.333333z m85.333333 256a85.333333 85.333333 0 0 1 85.333334 85.333334v170.666666a85.333333 85.333333 0 0 1-85.333334 85.333334h-170.666666a85.333333 85.333333 0 0 1-85.333334-85.333334v-170.666666a85.333333 85.333333 0 0 1 85.333334-85.333334h170.666666z" fill="#008df0" p-id="12374"></path></svg>