<?xml version="1.0" encoding="utf-8"?>
<!-- Generator: Adobe Illustrator 21.0.0, SVG Export Plug-In . SVG Version: 6.00 Build 0)  -->
<svg version="1.1" id="图层_1" xmlns:xodm="http://www.corel.com/coreldraw/odm/2003"
	 xmlns="http://www.w3.org/2000/svg" xmlns:xlink="http://www.w3.org/1999/xlink" x="0px" y="0px" viewBox="0 0 20 20"
	 style="enable-background:new 0 0 20 20;" xml:space="preserve">
<style type="text/css">
	.st0{fill:none;}
	.st1{fill:#FFFFFF;}
</style>
<g id="图层_x0020_1">
	<path class="st0" d="M15,20c1.7,0,3.3,0,5,0V0H0v20h20v0C18.3,20,16.7,20,15,20z"/>
	<path class="st1" d="M2.9,10.6c0,2.5,1.9,4.6,4.2,4.8V20h6.3v-2.8L2.9,8.5V10.6z"/>
</g>
<path class="st1" d="M16.1,13.6c0.6-0.8,1.1-1.9,1.1-3V6h-2.2V1.8c0-0.7-0.5-1.3-1.2-1.3h-0.8c-0.7,0-1.3,0.5-1.3,1.3V6H8.3V1.8
	c0-0.7-0.6-1.3-1.3-1.3H6.3C5.6,0.5,5,1,5,1.8v2.5L0,0.1v0.2v3v0.2l19.5,16.3c0.2,0,0.3,0,0.5,0c0,0,0,0,0.1,0v-2.4v-0.6L16.1,13.6z
	"/>
</svg>
