<?xml version="1.0" standalone="no"?><!DOCTYPE svg PUBLIC "-//W3C//DTD SVG 1.1//EN" "http://www.w3.org/Graphics/SVG/1.1/DTD/svg11.dtd"><svg t="1725884523032" class="icon" viewBox="0 0 1024 1024" version="1.1" xmlns="http://www.w3.org/2000/svg" p-id="2364" width="32" height="32" xmlns:xlink="http://www.w3.org/1999/xlink"><path d="M773.688889 182.044444a68.266667 68.266667 0 0 1 68.266667 68.266667v375.466667a68.266667 68.266667 0 0 1-68.266667 68.266666H250.311111a68.266667 68.266667 0 0 1-68.266667-68.266666V250.311111a68.266667 68.266667 0 0 1 68.266667-68.266667h523.377778z m-25.486222 150.459734a28.444444 28.444444 0 0 0-40.231823 0.193422L584.203378 457.614222l-77.323378-87.3472-1.399467-1.479111a28.444444 28.444444 0 0 0-40.106666 0.318578L321.1264 514.730667l-1.376711 1.479111a28.444444 28.444444 0 0 0 1.570133 38.741333l1.479111 1.376711a28.444444 28.444444 0 0 0 38.741334-1.570133l122.868622-124.040533 77.334755 87.358577 1.399467 1.479111a28.444444 28.444444 0 0 0 40.106667-0.318577L748.384711 372.736l1.376711-1.479111a28.444444 28.444444 0 0 0-1.570133-38.741333zM341.333333 750.933333h341.333334a34.133333 34.133333 0 0 1 0 68.266667H341.333333a34.133333 34.133333 0 0 1 0-68.266667z" fill="#1296db" p-id="2365"></path></svg>