<?xml version="1.0" standalone="no"?><!DOCTYPE svg PUBLIC "-//W3C//DTD SVG 1.1//EN" "http://www.w3.org/Graphics/SVG/1.1/DTD/svg11.dtd"><svg t="1657951836725" class="icon" viewBox="0 0 1024 1024" version="1.1" xmlns="http://www.w3.org/2000/svg" p-id="8431" xmlns:xlink="http://www.w3.org/1999/xlink" width="20" height="20"><defs><style type="text/css">@font-face { font-family: feedback-iconfont; src: url("//at.alicdn.com/t/font_1031158_u69w8yhxdu.woff2?t=1630033759944") format("woff2"), url("//at.alicdn.com/t/font_1031158_u69w8yhxdu.woff?t=1630033759944") format("woff"), url("//at.alicdn.com/t/font_1031158_u69w8yhxdu.ttf?t=1630033759944") format("truetype"); }
</style></defs><path d="M959 785.2c3 18-0.8 34.2-11.3 48.6C937.2 848.2 923 857 905 860l-108 17.1c-17.4 3-33.5-0.8-48.2-11.3-14.8-10.5-23.6-24.8-26.6-42.8l-91.8-581.7c-1.2-9-0.8-17.6 1.3-25.7 2.1-8.1 5.6-15.6 10.4-22.5 4.8-6.9 11-12.6 18.5-17.1 7.5-4.5 15.8-7.7 24.8-9.5l107.2-17.1c18-3 34.2 0.9 48.6 11.7 14.4 10.8 23.1 25.2 26.1 43.2L959 785.2zM506.1 145.9c18 0 33.3 6.3 45.9 18.9 12.6 12.6 18.9 27.9 18.9 45.9v601.5c0 18-6.3 33.3-18.9 45.9-12.6 12.6-27.9 18.9-45.9 18.9h-93.6c-18 0-33.3-6.3-45.9-18.9-12.6-12.6-18.9-27.9-18.9-45.9V210.8c0-18 4.8-33.3 14.4-45.9 9.6-12.6 23.7-18.9 42.3-18.9h101.7z m0 453.8c6 0 11.1-2.9 15.3-8.6 4.2-5.7 6.3-12.5 6.3-20.3 0-8.4-2.1-15.3-6.3-20.7-4.2-5.4-9.3-8.1-15.3-8.1h-93.6c-6 0-11.1 2.7-15.3 8.1-4.2 5.4-6.3 12.3-6.3 20.7 0 7.8 2.1 14.6 6.3 20.3 4.2 5.7 9.3 8.6 15.3 8.6h93.6z m0-114.3c6 0 11.1-2.9 15.3-8.6 4.2-5.7 6.3-12.8 6.3-21.2 0-8.4-2.1-15.3-6.3-20.7-4.2-5.4-9.3-8.1-15.3-8.1h-93.6c-6 0-11.1 2.7-15.3 8.1-4.2 5.4-6.3 12.3-6.3 20.7 0 8.4 2.1 15.5 6.3 21.2 4.2 5.7 9.3 8.6 15.3 8.6h93.6zM223.4 145.9c18 0 33.5 6.3 46.4 18.9 12.9 12.6 19.4 27.9 19.4 45.9v601.5c0 18-6.5 33.3-19.4 45.9-12.9 12.6-28.4 18.9-46.4 18.9h-93.6c-18 0-33.5-6.3-46.4-18.9C70.5 845.5 64 830.2 64 812.2V210.8c0-18 6.5-33.3 19.4-45.9 12.9-12.6 28.4-18.9 46.4-18.9h93.6zM133.3 371c-6.6 0-12 2.7-16.2 8.1-4.2 5.4-6.3 12.3-6.3 20.7 0 7.8 2.1 14.6 6.3 20.3 4.2 5.7 9.6 8.6 16.2 8.6h86.4c6.6 0 11.9-2.9 15.8-8.6 3.9-5.7 5.9-12.5 5.9-20.3 0-8.4-1.9-15.3-5.9-20.7-3.9-5.4-9.2-8.1-15.8-8.1h-86.4z m90.1 282.8c6.6 0 11.9-2.7 15.8-8.1 3.9-5.4 5.9-12 5.9-19.8 0-8.4-2-15.2-5.9-20.3-3.9-5.1-9.2-7.7-15.8-7.7h-90c-6.6 0-12 2.5-16.2 7.7-4.2 5.1-6.3 11.9-6.3 20.3 0 7.8 2.1 14.4 6.3 19.8 4.2 5.4 9.6 8.1 16.2 8.1h90z m0-110.8c6.6 0 11.9-2.7 15.8-8.1 3.9-5.4 5.9-12.3 5.9-20.7 0-8.4-2-15.3-5.9-20.7-3.9-5.4-9.2-8.1-15.8-8.1h-90c-6.6 0-12 2.7-16.2 8.1-4.2 5.4-6.3 12.3-6.3 20.7 0 8.4 2.1 15.3 6.3 20.7 4.2 5.4 9.6 8.1 16.2 8.1h90z m0 0" p-id="8432" fill="#ffffff" data-spm-anchor-id="a313x.7781069.0.i1"></path></svg>