<?xml version="1.0" encoding="utf-8"?>
<!-- Generator: Adobe Illustrator 21.0.0, SVG Export Plug-In . SVG Version: 6.00 Build 0)  -->
<svg version="1.1" id="图层_1" xmlns="http://www.w3.org/2000/svg" xmlns:xlink="http://www.w3.org/1999/xlink" x="0px" y="0px"
	 viewBox="0 0 255.9 222.6" style="enable-background:new 0 0 255.9 222.6;" xml:space="preserve">
<style type="text/css">
	.st0{fill:#FFFFFF;}
</style>
<g>
	<g>
		<path class="st0" d="M38,157c-4.2,0.1-8.3,0.2-12.5,0c-4.4-0.2-6.6,1.6-6.4,6.1c0.2,3.7-1.7,5.1-5.2,4.9c-3.2-0.1-6.3,0-9.5,0
			c-2.9,0-4.3,1.3-4.3,4.2c0,5.3,0,10.7,0,16c0,3.3,1.7,4.4,4.7,4.3c2.8-0.1,5.7,0.1,8.5,0c3.9-0.2,6,1.1,5.8,5.4
			c-0.2,3.9,1.7,5.8,5.8,5.7c4.3-0.1,8.7-0.1,13,0c3.4,0.1,4.9-1.4,4.8-4.8c-0.1-6.2,0-12.3,0-18.5s-0.1-12.3,0-18.5
			C42.8,158.5,41.4,156.9,38,157z"/>
		<path class="st0" d="M42.7,110.2c0-6.2,0-12.3,0-18.5c0-2.7-0.7-4.7-3.9-4.7c-5.2,0-10.3,0-15.5,0c-2.6,0-4.3,1.6-4.1,4.1
			c0.5,6.2-2.9,7-8,6.9C-1.1,97.8,0,96.8,0,109.3c0,12.9,0,13.1,12.9,13.2c4.4,0,6.5,1.5,6.2,6.1c-0.2,3.5,1.9,5.1,5.3,5
			c4.3-0.1,8.7-0.1,13,0c3.9,0.2,5.3-1.7,5.2-5.4C42.6,122.2,42.7,116.2,42.7,110.2z"/>
		<path class="st0" d="M213.1,40c0,6,0,12,0,18c0,0.3,0,0.7,0,1c-0.1,3.1,1.3,4.6,4.5,4.6c4.8-0.1,9.7,0,14.5,0
			c2.8,0,4.7-1.5,4.5-4.2c-0.4-5.8,2.5-6.9,7.6-6.8c12.7,0.2,11.6,1.3,11.6-11.4c0-12.8,0-12.9-13-13c-4.1,0-6.3-1.2-6.1-5.7
			c0.2-3.7-1.7-5.5-5.5-5.4c-4.3,0.1-8.7,0.1-13,0c-3.6-0.1-5.2,1.4-5.1,5C213.2,28,213.1,34,213.1,40z"/>
		<path class="st0" d="M12.6,52.6c0.2,0,0.3,0,0.5,0c4.1-0.4,6.3,1.2,6,5.6c-0.2,3.7,1.8,5.5,5.5,5.4c4.5-0.1,9-0.1,13.5,0
			c3.1,0,4.6-1.4,4.5-4.5c-0.1-6.2,0-12.3,0-18.5c0-6.3,0-12.7,0-19c0-3.1-1.4-4.6-4.5-4.6c-4.7,0.1-9.3,0-14,0
			c-3.3,0-5.2,1.6-5,4.8c0.4,5.4-2.5,6.3-7.1,6.2C-1.3,27.9,0,26.4,0,40C0.1,54.4-1.3,52.5,12.6,52.6z"/>
		<path class="st0" d="M242.4,168c-3.9-0.1-6-1.2-5.8-5.4c0.2-4-1.8-5.7-5.8-5.6c-4.3,0.1-8.7,0.1-13,0c-3.4-0.1-4.8,1.5-4.8,4.8
			c0.1,6.2,0,12.3,0,18.5l0,0c0,3,0,6,0,9c0,3.2,0.1,6.3,0,9.5c-0.1,3.4,1.4,4.9,4.8,4.8c4.7-0.1,9.3,0,14,0c2.7,0,4.9-1.3,4.6-4.1
			c-0.5-6.7,3.3-7.1,8.4-7c11.6,0.2,10.8,1,10.8-10.7C255.7,168.4,255.7,168.3,242.4,168z"/>
		<path class="st0" d="M219.2,133.7c3.8-0.2,7.7-0.2,11.5,0c3.9,0.1,6.2-1.4,5.9-5.5c-0.3-4.6,2.1-5.5,6.1-5.6
			c12.9-0.1,12.9-0.3,12.9-13.1c0-12.5,1.1-11.4-11.1-11.4c-0.5,0-1,0-1.5,0c-4.2,0.4-6.7-0.9-6.4-5.8c0.2-3.8-1.9-5.3-5.6-5.2
			c-4.2,0.1-8.3,0.2-12.5,0s-5.6,1.8-5.5,5.7c0.2,5.8,0,11.7,0,17.5c0,5.7,0,11.3,0,17c0,0.2,0,0.3,0,0.5
			C212.6,132.3,214.8,133.9,219.2,133.7z"/>
	</g>
	<path class="st0" d="M205.7,28.1C205.7,10,195.6,0,177.4,0c-33,0-66,0-98.9,0C60.1,0,50.2,10,50.1,28.6c0,55.1,0,110.3,0,165.4
		c0,18.8,9.9,28.6,28.8,28.6c32.6,0,65.3,0,97.9,0c19.1,0,28.8-9.9,28.9-29.1c0-27.3,0-54.6,0-82C205.7,83.8,205.8,55.9,205.7,28.1z
		 M96.1,57.9C85.6,58,77.7,50.1,77.7,39.6c0.1-10.2,7.9-18,18.2-18c10.2,0,18.1,7.8,18.1,18C114.1,50,106.4,57.8,96.1,57.9z"/>
</g>
</svg>
